<mxfile host="app.diagrams.net" modified="2023-01-15T07:44:57.109Z" agent="5.0 (Windows NT 10.0; Win64; x64) AppleWebKit/537.36 (KHTML, like Gecko) Chrome/108.0.0.0 Safari/537.36" version="20.8.5" etag="6UbGZQbhhQAAuEdalPhi" type="github">
  <diagram id="lcwmB2aRgka3avqDU1QG" name="第 1 页">
    <mxGraphModel dx="293" dy="172" grid="1" gridSize="10" guides="1" tooltips="1" connect="1" arrows="1" fold="1" page="1" pageScale="1" pageWidth="827" pageHeight="1169" math="0" shadow="0">
      <root>
        <mxCell id="0" />
        <mxCell id="1" parent="0" />
        <mxCell id="ZwDLyrfxPFdCYWF4dFid-1" value="" style="ellipse;whiteSpace=wrap;html=1;aspect=fixed;fillColor=#f5f5f5;strokeColor=#666666;fontColor=#333333;" vertex="1" parent="1">
          <mxGeometry x="347.5" y="427.5" width="140" height="140" as="geometry" />
        </mxCell>
        <mxCell id="ZwDLyrfxPFdCYWF4dFid-2" value="" style="ellipse;whiteSpace=wrap;html=1;aspect=fixed;" vertex="1" parent="1">
          <mxGeometry x="360" y="440" width="115" height="115" as="geometry" />
        </mxCell>
      </root>
    </mxGraphModel>
  </diagram>
</mxfile>
